<svg width="500" height="500" version="1.1" xmlns="http://www.w3.org/2000/svg" desc="Created with imagetracer.js version 1.2.6" ><path fill="rgb(225,157,20)" stroke="rgb(225,157,20)" stroke-width="1" opacity="0.8549019607843137" d="M 243.5 93 L 246.5 94 Q 247.8 91.7 252.5 93 L 256.5 94 L 258.5 94 Q 286.1 98.4 299 117.5 L 303.5 125 L 304.5 124 L 318.5 123 L 319.5 124 L 327.5 124 L 344 132 Q 342.9 134.7 345.5 134 Q 354.5 141.5 359 153.5 L 361 162.5 L 361 175.5 L 359 184.5 L 351 199 Q 348.3 197.9 349 200.5 L 334.5 211 L 323.5 214 L 318 214 L 307 252.5 L 307 257.5 L 305 261.5 L 303 274.5 L 301 279.5 L 300 291.5 L 297.5 295 L 291.5 292 L 269.5 287 Q 264 288.5 262.5 286 L 238.5 286 L 231.5 288 L 224.5 288 L 208.5 292 L 202.5 295 L 200 292.5 L 198 282.5 L 198 280.5 L 196 267.5 L 193 258.5 L 193 253.5 L 190 246.5 L 190 244.5 L 182 215 Q 158.3 212.4 147 196.5 L 141 185.5 L 138 167.5 Q 140.8 165.8 139 159.5 L 142 150.5 L 150.5 138 L 152 138 L 152 136 Q 154.7 137.1 154 134.5 L 161.5 129 L 174.5 124 L 194.5 124 L 198 125 Q 202.4 113.2 212.5 106 L 228.5 97 L 243.5 93 Z M 249 103 L 232 107 L 217 116 L 208 126 L 202 137 L 188 133 L 181 133 Q 178 136 173 135 L 162 142 L 159 144 Q 150 152 148 166 Q 148 181 155 190 L 157 193 Q 163 199 172 203 L 180 205 L 188 205 L 197 236 L 202 261 L 202 267 L 204 272 L 204 282 L 206 283 L 233 276 L 235 277 L 237 276 L 266 276 L 268 276 L 287 280 L 294 283 L 295 282 L 296 268 L 298 264 L 298 258 L 302 237 L 311 206 L 313 204 L 328 203 L 340 196 L 349 183 L 352 170 L 350 158 L 343 146 L 333 137 L 322 133 L 311 133 L 300 137 L 291 124 L 284 116 Q 281 117 282 114 L 265 105 L 254 104 L 249 103 Z " /><path fill="rgb(225,157,20)" stroke="rgb(225,157,20)" stroke-width="1" opacity="0.8549019607843137" d="M 249.5 179 L 252 189.5 L 252 206.5 L 253 207.5 L 253 250.5 L 252 251.5 L 252 259 L 249.5 260 L 247 256.5 L 246 243.5 L 247 241.5 L 246 240.5 L 246 207.5 L 247 206.5 L 248 183.5 L 249.5 179 Z " /><path fill="rgb(225,157,20)" stroke="rgb(225,157,20)" stroke-width="1" opacity="0.8549019607843137" d="M 284.5 192 Q 287 193 286 197.5 L 284 204.5 L 284 214.5 L 282 221.5 L 282 230.5 L 280 237.5 L 280 243.5 L 277 259.5 L 275.5 261 L 272 259.5 L 272 245.5 L 274 237.5 L 274 229.5 L 277 219.5 L 277 214.5 L 284.5 192 Z " /><path fill="rgb(225,157,20)" stroke="rgb(225,157,20)" stroke-width="1" opacity="0.8549019607843137" d="M 213.5 193 L 217 198.5 L 223 220.5 L 226 236.5 L 226 245.5 L 227 246.5 L 228 259.5 L 224.5 262 L 222 259.5 L 220 249.5 L 220 242.5 L 216 222.5 L 216 213.5 L 213 199.5 L 213.5 193 Z " /><path fill="rgb(225,157,20)" stroke="rgb(225,157,20)" stroke-width="1" opacity="0.8549019607843137" d="M 124 220 L 127.5 220 L 179 267.5 L 183 275.5 L 183 284.5 L 185 294.5 Q 191.2 307.3 202.5 315 L 241.5 352 L 243 352 Q 241.9 354.7 244.5 354 L 250.5 359 L 253 358 L 253 356 L 255 356 L 255 354 Q 257.7 355.1 257 352.5 L 289 322.5 Q 288.3 320.3 290.5 321 L 303.5 308 L 305 308 Q 303.9 310.7 306.5 310 Q 307.8 312.3 309 309.5 L 310 307.5 L 307 302.5 L 329.5 276 L 331 276 L 331 274 Q 333.7 275.1 333 272.5 L 349.5 255 Q 351.8 255.8 351 253.5 L 376.5 231 L 387.5 225 L 397 223 L 397 229.5 L 390 247.5 L 373 276 Q 370.3 274.9 371 277.5 L 364 287 L 362 287 L 362 289 Q 359.3 287.9 360 290.5 L 348.5 302 L 347 302 Q 348.1 304.7 345.5 304 L 339 309 L 337.5 312 L 325.5 321 L 323.5 321 L 319 315 L 312.5 311 L 309 313.5 L 312 315 L 310.5 319 L 308 320.5 L 260 369.5 L 284 392.5 L 285.5 395 L 289 397.5 L 289 399 L 291 399 Q 289.9 401.7 292.5 401 L 294.5 404 L 290.5 405 L 287.5 404 L 285.5 404 L 273.5 404 L 266 396.5 Q 266.8 394.3 264.5 395 L 250.5 380 L 226.5 404 L 223.5 405 L 222.5 404 L 210.5 404 L 205 405 L 205 403.5 L 225.5 383 L 240 369.5 L 230 359.5 L 230 358 L 227 356.5 L 227 355 L 225 355 L 225 353 L 223 353 Q 224.1 350.3 221.5 351 L 220 348 L 218 348 L 218 346 L 216 346 L 216 344 Q 213.3 345.1 214 342.5 L 209 339 L 209 337.5 L 194.5 323 Q 192.3 323.8 193 321.5 L 188 318 L 188 316 L 186 316 L 186 314 L 184 314 Q 185.1 311.3 182.5 312 L 173.5 307 L 149.5 307 L 140 302 L 137.5 298 Q 135.3 298.8 136 296.5 L 93 249.5 L 96.5 248 L 107 257.5 Q 106.3 259.8 108.5 259 L 133.5 283 L 135 283 L 137.5 287 L 145.5 293 Q 148.5 292.5 148 288.5 L 115 253.5 L 115 252 L 113 252 Q 114.1 249.3 111.5 250 L 102 239.5 Q 104.3 234.8 106.5 239 L 111.5 243 L 138.5 269 L 140 269 L 143.5 274 L 153.5 283 L 156.5 283 Q 159 281.8 158 278 Q 155.3 279.1 156 276.5 L 146 266.5 L 146 265 L 144 265 L 144 263 Q 141.3 264.1 142 261.5 L 127 246.5 L 127 245 L 124 243.5 L 113 231.5 L 113 229.5 Q 114.8 226.3 116.5 230 L 119.5 232 L 130 241.5 Q 129.3 243.8 131.5 243 L 162 271.5 L 163.5 274 Q 167.5 274.5 168 271.5 L 168 269.5 L 149 249.5 L 149 248 Q 146.3 249.1 147 246.5 L 136 235.5 L 136 234 L 133 232.5 L 124 222.5 L 124 220 Z " /><path fill="rgb(0,0,0)" stroke="rgb(0,0,0)" stroke-width="1" opacity="0" d="M 0 0 L 500 0 L 500 500 L 0 500 L 0 0 Z M 244 93 L 229 97 L 213 106 Q 202 113 198 125 L 195 124 L 175 124 L 162 129 L 154 135 Q 155 137 152 136 L 152 138 L 151 138 L 142 151 L 139 160 Q 141 166 138 168 L 141 186 L 147 197 Q 158 212 182 215 L 190 245 L 190 247 L 193 254 L 193 259 L 196 268 L 198 281 L 198 283 L 200 293 L 203 295 L 209 292 L 225 288 L 232 288 L 239 286 L 263 286 Q 264 289 270 287 L 292 292 L 298 295 L 300 292 L 301 280 L 303 275 L 305 262 L 307 258 L 307 253 L 318 214 L 324 214 L 335 211 L 349 201 Q 348 198 351 199 L 359 185 L 361 176 L 361 163 L 359 154 Q 354 141 346 134 Q 343 135 344 132 L 328 124 L 320 124 L 319 123 L 305 124 L 304 125 L 299 118 Q 286 98 259 94 L 257 94 L 253 93 Q 248 92 247 94 L 244 93 Z M 124 220 L 124 223 L 133 233 L 136 234 L 136 236 L 147 247 Q 146 249 149 248 L 149 250 L 168 270 L 168 272 Q 168 275 164 274 L 162 272 L 132 243 Q 129 244 130 242 L 120 232 L 117 230 Q 115 226 113 230 L 113 232 L 124 244 L 127 245 L 127 247 L 142 262 Q 141 264 144 263 L 144 265 L 146 265 L 146 267 L 156 277 Q 155 279 158 278 Q 159 282 157 283 L 154 283 L 144 274 L 140 269 L 139 269 L 112 243 L 107 239 Q 104 235 102 240 L 112 250 Q 114 249 113 252 L 115 252 L 115 254 L 148 289 Q 149 293 146 293 L 138 287 L 135 283 L 134 283 L 109 259 Q 106 260 107 258 L 97 248 L 93 250 L 136 297 Q 135 299 138 298 L 140 302 L 150 307 L 174 307 L 183 312 Q 185 311 184 314 L 186 314 L 186 316 L 188 316 L 188 318 L 193 322 Q 192 324 195 323 L 209 338 L 209 339 L 214 343 Q 213 345 216 344 L 216 346 L 218 346 L 218 348 L 220 348 L 222 351 Q 224 350 223 353 L 225 353 L 225 355 L 227 355 L 227 357 L 230 358 L 230 360 L 240 370 L 226 383 L 205 404 L 205 405 L 211 404 L 223 404 L 224 405 L 227 404 L 251 380 L 265 395 Q 267 394 266 397 L 274 404 L 286 404 L 288 404 L 291 405 L 295 404 L 293 401 Q 290 402 291 399 L 289 399 L 289 398 L 286 395 L 284 393 L 260 370 L 308 321 L 311 319 L 312 315 L 309 314 L 313 311 L 319 315 L 324 321 L 326 321 L 338 312 L 339 309 L 346 304 Q 348 305 347 302 L 349 302 L 360 291 Q 359 288 362 289 L 362 287 L 364 287 L 371 278 Q 370 275 373 276 L 390 248 L 397 230 L 397 223 L 388 225 L 377 231 L 351 254 Q 352 256 350 255 L 333 273 Q 334 275 331 274 L 331 276 L 330 276 L 307 303 L 310 308 L 309 310 Q 308 312 307 310 Q 304 311 305 308 L 304 308 L 291 321 Q 288 320 289 323 L 257 353 Q 258 355 255 354 L 255 356 L 253 356 L 253 358 L 251 359 L 245 354 Q 242 355 243 352 L 242 352 L 203 315 Q 191 307 185 295 L 183 285 L 183 276 L 179 268 L 128 220 L 124 220 Z " /><path fill="rgb(0,0,0)" stroke="rgb(0,0,0)" stroke-width="1" opacity="0" d="M 248.5 103 L 253.5 104 L 264.5 105 L 282 114 Q 280.9 116.7 283.5 116 L 291 123.5 L 299.5 137 L 310.5 133 L 321.5 133 L 332.5 137 L 343 145.5 L 350 157.5 L 352 169.5 L 349 182.5 L 340 196 L 327.5 203 L 312.5 204 L 311 205.5 L 302 236.5 L 298 257.5 L 298 263.5 L 296 267.5 L 295 281.5 L 293.5 283 L 286.5 280 L 267.5 276 L 265.5 276 L 236.5 276 L 234.5 277 L 232.5 276 L 205.5 283 L 204 281.5 L 204 271.5 L 202 266.5 L 202 260.5 L 197 235.5 L 188 205 L 179.5 205 L 171.5 203 Q 162.6 199.4 157 192.5 L 155 189.5 Q 147.8 181.2 148 165.5 Q 150.3 151.8 158.5 144 L 161.5 142 L 172.5 135 Q 178.2 135.7 180.5 133 L 187.5 133 L 201.5 137 L 208 125.5 L 216.5 116 L 231.5 107 L 248.5 103 Z M 250 179 L 248 184 L 247 207 L 246 208 L 246 241 L 247 242 L 246 244 L 247 257 L 250 260 L 252 259 L 252 252 L 253 251 L 253 208 L 252 207 L 252 190 L 250 179 Z M 285 192 L 277 215 L 277 220 L 274 230 L 274 238 L 272 246 L 272 260 L 276 261 L 277 260 L 280 244 L 280 238 L 282 231 L 282 222 L 284 215 L 284 205 L 286 198 Q 287 193 285 192 Z M 214 193 L 213 200 L 216 214 L 216 223 L 220 243 L 220 250 L 222 260 L 225 262 L 228 260 L 227 247 L 226 246 L 226 237 L 223 221 L 217 199 L 214 193 Z " /></svg>